<svg xmlns="http://www.w3.org/2000/svg" xmlns:xlink="http://www.w3.org/1999/xlink" width="800" zoomAndPan="magnify" viewBox="0 0 600 249.749984" height="333" preserveAspectRatio="xMidYMid meet" version="1.0"><defs><g/><clipPath id="f710a86a01"><path d="M 5.003906 24.175781 L 203.5625 24.175781 L 203.5625 222.734375 L 5.003906 222.734375 Z M 5.003906 24.175781 " clip-rule="nonzero"/></clipPath><clipPath id="a19de23fa2"><path d="M 20.011719 24.949219 L 189.324219 24.949219 C 193.101562 24.949219 196.722656 26.449219 199.390625 29.121094 C 202.0625 31.789062 203.5625 35.410156 203.5625 39.1875 L 203.5625 208.5 C 203.5625 212.273438 202.0625 215.894531 199.390625 218.566406 C 196.722656 221.234375 193.101562 222.734375 189.324219 222.734375 L 20.011719 222.734375 C 16.238281 222.734375 12.617188 221.234375 9.945312 218.566406 C 7.277344 215.894531 5.777344 212.273438 5.777344 208.5 L 5.777344 39.1875 C 5.777344 35.410156 7.277344 31.789062 9.945312 29.121094 C 12.617188 26.449219 16.238281 24.949219 20.011719 24.949219 Z M 20.011719 24.949219 " clip-rule="nonzero"/></clipPath></defs><g clip-path="url(#f710a86a01)"><g clip-path="url(#a19de23fa2)"><path fill="#545454" d="M 5.777344 24.949219 L 203.5625 24.949219 L 203.5625 222.734375 L 5.777344 222.734375 Z M 5.777344 24.949219 " fill-opacity="1" fill-rule="nonzero"/></g></g><g fill="#545454" fill-opacity="1"><g transform="translate(203.560839, 200.267595)"><g><path d="M 41.15625 -50.6875 C 41.15625 -43.789062 43.316406 -38.347656 47.640625 -34.359375 C 51.960938 -30.378906 57.707031 -28.390625 64.875 -28.390625 C 69.46875 -28.390625 74.128906 -29.265625 78.859375 -31.015625 C 83.585938 -32.773438 87.238281 -34.601562 89.8125 -36.5 L 89.8125 -4.25 C 80.082031 0.476562 69.878906 2.84375 59.203125 2.84375 C 42.847656 2.84375 29.671875 -2.160156 19.671875 -12.171875 C 9.660156 -22.441406 4.65625 -35.28125 4.65625 -50.6875 C 4.65625 -66.226562 9.660156 -79 19.671875 -89 C 29.535156 -99.132812 42.710938 -104.203125 59.203125 -104.203125 C 70.148438 -104.203125 80.148438 -101.90625 89.203125 -97.3125 L 89.203125 -64.875 C 86.367188 -67.039062 82.648438 -68.929688 78.046875 -70.546875 C 73.453125 -72.171875 69.0625 -72.984375 64.875 -72.984375 C 57.84375 -72.984375 52.128906 -70.957031 47.734375 -66.90625 C 43.347656 -62.851562 41.15625 -57.445312 41.15625 -50.6875 Z M 41.15625 -50.6875 "/></g></g></g><g fill="#545454" fill-opacity="1"><g transform="translate(299.248885, 200.267595)"><g><path d="M 11.96875 0 L 11.96875 -101.375 L 44.796875 -101.375 L 45.8125 -91.03125 C 46.21875 -88.457031 45.945312 -86.296875 45 -84.546875 L 45.40625 -84.546875 C 47.4375 -89.003906 50.679688 -92.921875 55.140625 -96.296875 C 59.597656 -99.679688 64.597656 -101.910156 70.140625 -102.984375 C 73.390625 -103.929688 76.632812 -104.203125 79.875 -103.796875 C 92.988281 -103.253906 102.113281 -97.238281 107.25 -85.75 C 116.300781 -98.050781 127.25 -104.203125 140.09375 -104.203125 C 151.175781 -104.203125 159.753906 -100.722656 165.828125 -93.765625 C 171.910156 -86.804688 174.953125 -76.632812 174.953125 -63.25 L 174.953125 0 L 138.875 0 L 138.875 -58.59375 C 138.875 -67.375 135.492188 -71.765625 128.734375 -71.765625 C 122.242188 -71.765625 117.78125 -69.398438 115.34375 -64.671875 C 112.914062 -59.941406 111.703125 -52.710938 111.703125 -42.984375 L 111.703125 0 L 75.421875 0 L 75.421875 -58.59375 C 75.421875 -67.375 72.109375 -71.765625 65.484375 -71.765625 C 58.992188 -71.765625 54.5 -69.363281 52 -64.5625 C 49.5 -59.769531 48.25 -52.578125 48.25 -42.984375 L 48.25 0 Z M 11.96875 0 "/></g></g></g><g fill="#545454" fill-opacity="1"><g transform="translate(484.745825, 200.267595)"><g><path d="M 56.96875 -104.203125 C 72.101562 -104.203125 83.859375 -99.609375 92.234375 -90.421875 C 100.617188 -81.234375 104.8125 -70.015625 104.8125 -56.765625 C 104.8125 -54.597656 104.472656 -50.140625 103.796875 -43.390625 L 41.96875 -43.390625 C 43.457031 -32.578125 51.566406 -27.171875 66.296875 -27.171875 C 72.648438 -27.171875 79.335938 -27.910156 86.359375 -29.390625 C 93.253906 -30.878906 97.988281 -32.300781 100.5625 -33.65625 L 100.5625 -3.453125 C 92.039062 0.742188 79.46875 2.84375 62.84375 2.84375 C 44.875 2.84375 30.6875 -2.09375 20.28125 -11.96875 C 9.726562 -21.832031 4.453125 -34.738281 4.453125 -50.6875 C 4.453125 -65.957031 9.457031 -78.726562 19.46875 -89 C 29.46875 -99.132812 41.96875 -104.203125 56.96875 -104.203125 Z M 41.765625 -60.015625 L 70.75 -60.015625 C 70.882812 -64.878906 69.703125 -68.832031 67.203125 -71.875 C 64.703125 -74.914062 61.15625 -76.4375 56.5625 -76.4375 C 52.101562 -76.4375 48.554688 -74.914062 45.921875 -71.875 C 43.285156 -68.832031 41.898438 -64.878906 41.765625 -60.015625 Z M 41.765625 -60.015625 "/></g></g></g><g fill="#ffffff" fill-opacity="1"><g transform="translate(32.737496, 196.634149)"><g><path d="M 37.125 0 L -1.625 0 L 70.984375 -148.0625 L 72.8125 -148.0625 L 145.421875 0 L 106.6875 0 L 96.34375 -22.3125 L 47.265625 -22.3125 Z M 58.015625 -47.265625 L 85.796875 -47.265625 C 79.171875 -62.265625 74.570312 -73.890625 72 -82.140625 L 65.921875 -66.9375 C 62.398438 -57.875 59.765625 -51.316406 58.015625 -47.265625 Z M 58.015625 -47.265625 "/></g></g></g></svg>