<svg xmlns="http://www.w3.org/2000/svg" xmlns:xlink="http://www.w3.org/1999/xlink" width="800" zoomAndPan="magnify" viewBox="0 0 600 123.750003" height="165" preserveAspectRatio="xMidYMid meet" version="1.0"><defs><clipPath id="404493d1e0"><path d="M 0.605469 0 L 125 0 L 125 123.316406 L 0.605469 123.316406 Z M 0.605469 0 " clip-rule="nonzero"/></clipPath><clipPath id="4d423e937e"><path d="M 69 0 L 193 0 L 193 123.316406 L 69 123.316406 Z M 69 0 " clip-rule="nonzero"/></clipPath><clipPath id="5176454962"><path d="M 137 0 L 261.144531 0 L 261.144531 123.316406 L 137 123.316406 Z M 137 0 " clip-rule="nonzero"/></clipPath><clipPath id="70bd59ff80"><path d="M 302.496094 36.292969 L 597 36.292969 L 597 103 L 302.496094 103 Z M 302.496094 36.292969 " clip-rule="nonzero"/></clipPath></defs><g clip-path="url(#404493d1e0)"><path fill="#0abd9f" d="M 124.019531 61.65625 C 124.019531 63.675781 123.917969 65.691406 123.722656 67.699219 C 123.523438 69.710938 123.226562 71.707031 122.832031 73.6875 C 122.4375 75.667969 121.949219 77.625 121.359375 79.554688 C 120.773438 81.488281 120.09375 83.386719 119.320312 85.253906 C 118.546875 87.117188 117.683594 88.941406 116.730469 90.722656 C 115.78125 92.503906 114.742188 94.234375 113.617188 95.914062 C 112.496094 97.589844 111.292969 99.210938 110.011719 100.773438 C 108.730469 102.332031 107.375 103.828125 105.945312 105.257812 C 104.515625 106.683594 103.019531 108.039062 101.457031 109.320312 C 99.898438 110.601562 98.273438 111.800781 96.59375 112.925781 C 94.914062 114.046875 93.183594 115.082031 91.402344 116.035156 C 89.617188 116.988281 87.792969 117.847656 85.925781 118.621094 C 84.058594 119.394531 82.160156 120.074219 80.226562 120.660156 C 78.292969 121.246094 76.335938 121.738281 74.351562 122.128906 C 72.371094 122.523438 70.375 122.820312 68.363281 123.019531 C 66.351562 123.214844 64.335938 123.316406 62.316406 123.316406 C 60.292969 123.316406 58.277344 123.214844 56.265625 123.019531 C 54.253906 122.820312 52.257812 122.523438 50.277344 122.128906 C 48.292969 121.738281 46.335938 121.246094 44.402344 120.660156 C 42.46875 120.074219 40.570312 119.394531 38.703125 118.621094 C 36.835938 117.847656 35.011719 116.988281 33.226562 116.035156 C 31.445312 115.082031 29.714844 114.046875 28.035156 112.925781 C 26.355469 111.800781 24.734375 110.601562 23.171875 109.320312 C 21.609375 108.039062 20.113281 106.683594 18.683594 105.257812 C 17.253906 103.828125 15.898438 102.332031 14.617188 100.773438 C 13.335938 99.210938 12.132812 97.589844 11.011719 95.914062 C 9.886719 94.234375 8.851562 92.503906 7.898438 90.722656 C 6.945312 88.941406 6.082031 87.117188 5.308594 85.253906 C 4.535156 83.386719 3.855469 81.488281 3.269531 79.554688 C 2.679688 77.625 2.191406 75.667969 1.796875 73.6875 C 1.402344 71.707031 1.105469 69.710938 0.910156 67.699219 C 0.710938 65.691406 0.609375 63.675781 0.609375 61.65625 C 0.609375 59.636719 0.710938 57.625 0.910156 55.613281 C 1.105469 53.605469 1.402344 51.609375 1.796875 49.628906 C 2.191406 47.648438 2.679688 45.691406 3.269531 43.757812 C 3.855469 41.828125 4.535156 39.929688 5.308594 38.0625 C 6.082031 36.195312 6.945312 34.375 7.898438 32.59375 C 8.851562 30.8125 9.886719 29.082031 11.011719 27.402344 C 12.132812 25.722656 13.335938 24.101562 14.617188 22.542969 C 15.898438 20.980469 17.253906 19.488281 18.683594 18.058594 C 20.113281 16.632812 21.609375 15.277344 23.171875 13.996094 C 24.734375 12.714844 26.355469 11.511719 28.035156 10.390625 C 29.714844 9.269531 31.445312 8.230469 33.226562 7.28125 C 35.011719 6.328125 36.835938 5.464844 38.703125 4.695312 C 40.570312 3.921875 42.46875 3.242188 44.402344 2.65625 C 46.335938 2.070312 48.292969 1.578125 50.277344 1.183594 C 52.257812 0.789062 54.253906 0.496094 56.265625 0.296875 C 58.277344 0.0976562 60.292969 0 62.316406 0 C 64.335938 0 66.351562 0.0976562 68.363281 0.296875 C 70.375 0.496094 72.371094 0.789062 74.351562 1.183594 C 76.335938 1.578125 78.292969 2.070312 80.226562 2.65625 C 82.160156 3.242188 84.058594 3.921875 85.925781 4.695312 C 87.792969 5.464844 89.617188 6.328125 91.402344 7.28125 C 93.183594 8.230469 94.914062 9.269531 96.59375 10.390625 C 98.273438 11.511719 99.898438 12.714844 101.457031 13.996094 C 103.019531 15.277344 104.515625 16.632812 105.945312 18.058594 C 107.375 19.488281 108.730469 20.980469 110.011719 22.542969 C 111.292969 24.101562 112.496094 25.722656 113.617188 27.402344 C 114.742188 29.082031 115.78125 30.8125 116.730469 32.59375 C 117.683594 34.375 118.546875 36.195312 119.320312 38.0625 C 120.09375 39.929688 120.773438 41.828125 121.359375 43.757812 C 121.949219 45.691406 122.4375 47.648438 122.832031 49.628906 C 123.226562 51.609375 123.523438 53.605469 123.722656 55.613281 C 123.917969 57.625 124.019531 59.636719 124.019531 61.65625 Z M 124.019531 61.65625 " fill-opacity="0.81" fill-rule="nonzero"/></g><g clip-path="url(#4d423e937e)"><path fill="#ffb313" d="M 192.578125 61.65625 C 192.578125 63.675781 192.476562 65.691406 192.28125 67.699219 C 192.082031 69.710938 191.785156 71.707031 191.390625 73.6875 C 190.996094 75.667969 190.507812 77.625 189.921875 79.554688 C 189.332031 81.488281 188.652344 83.386719 187.878906 85.253906 C 187.105469 87.117188 186.242188 88.941406 185.292969 90.722656 C 184.339844 92.503906 183.300781 94.234375 182.179688 95.914062 C 181.054688 97.589844 179.851562 99.210938 178.570312 100.773438 C 177.289062 102.332031 175.933594 103.828125 174.503906 105.257812 C 173.074219 106.683594 171.578125 108.039062 170.019531 109.320312 C 168.457031 110.601562 166.835938 111.800781 165.152344 112.925781 C 163.472656 114.046875 161.742188 115.082031 159.960938 116.035156 C 158.179688 116.988281 156.355469 117.847656 154.488281 118.621094 C 152.621094 119.394531 150.71875 120.074219 148.785156 120.660156 C 146.851562 121.246094 144.894531 121.738281 142.910156 122.128906 C 140.929688 122.523438 138.933594 122.820312 136.921875 123.019531 C 134.910156 123.214844 132.894531 123.316406 130.875 123.316406 C 128.851562 123.316406 126.835938 123.214844 124.824219 123.019531 C 122.816406 122.820312 120.816406 122.523438 118.835938 122.128906 C 116.855469 121.738281 114.894531 121.246094 112.960938 120.660156 C 111.027344 120.074219 109.128906 119.394531 107.261719 118.621094 C 105.394531 117.847656 103.570312 116.988281 101.785156 116.035156 C 100.003906 115.082031 98.273438 114.046875 96.59375 112.925781 C 94.914062 111.800781 93.292969 110.601562 91.730469 109.320312 C 90.167969 108.039062 88.671875 106.683594 87.242188 105.257812 C 85.8125 103.828125 84.457031 102.332031 83.175781 100.773438 C 81.894531 99.210938 80.691406 97.589844 79.570312 95.914062 C 78.445312 94.234375 77.410156 92.503906 76.457031 90.722656 C 75.503906 88.941406 74.640625 87.117188 73.867188 85.253906 C 73.09375 83.386719 72.414062 81.488281 71.828125 79.554688 C 71.242188 77.625 70.75 75.667969 70.355469 73.6875 C 69.960938 71.707031 69.664062 69.710938 69.46875 67.699219 C 69.269531 65.691406 69.171875 63.675781 69.171875 61.65625 C 69.171875 59.636719 69.269531 57.625 69.46875 55.613281 C 69.664062 53.605469 69.960938 51.609375 70.355469 49.628906 C 70.75 47.648438 71.242188 45.691406 71.828125 43.757812 C 72.414062 41.828125 73.09375 39.929688 73.867188 38.0625 C 74.640625 36.195312 75.503906 34.375 76.457031 32.59375 C 77.410156 30.8125 78.445312 29.082031 79.570312 27.402344 C 80.691406 25.722656 81.894531 24.101562 83.175781 22.542969 C 84.457031 20.980469 85.8125 19.488281 87.242188 18.058594 C 88.671875 16.632812 90.167969 15.277344 91.730469 13.996094 C 93.292969 12.714844 94.914062 11.511719 96.59375 10.390625 C 98.273438 9.269531 100.003906 8.230469 101.785156 7.28125 C 103.570312 6.328125 105.394531 5.464844 107.261719 4.695312 C 109.128906 3.921875 111.027344 3.242188 112.960938 2.65625 C 114.894531 2.070312 116.855469 1.578125 118.835938 1.183594 C 120.816406 0.789062 122.816406 0.496094 124.824219 0.296875 C 126.835938 0.0976562 128.851562 0 130.875 0 C 132.894531 0 134.910156 0.0976562 136.921875 0.296875 C 138.933594 0.496094 140.929688 0.789062 142.910156 1.183594 C 144.894531 1.578125 146.851562 2.070312 148.785156 2.65625 C 150.71875 3.242188 152.621094 3.921875 154.488281 4.695312 C 156.355469 5.464844 158.179688 6.328125 159.960938 7.28125 C 161.742188 8.230469 163.472656 9.269531 165.152344 10.390625 C 166.835938 11.511719 168.457031 12.714844 170.019531 13.996094 C 171.578125 15.277344 173.074219 16.632812 174.503906 18.058594 C 175.933594 19.488281 177.289062 20.980469 178.570312 22.542969 C 179.851562 24.101562 181.054688 25.722656 182.179688 27.402344 C 183.300781 29.082031 184.339844 30.8125 185.292969 32.59375 C 186.242188 34.375 187.105469 36.195312 187.878906 38.0625 C 188.652344 39.929688 189.332031 41.828125 189.921875 43.757812 C 190.507812 45.691406 190.996094 47.648438 191.390625 49.628906 C 191.785156 51.609375 192.082031 53.605469 192.28125 55.613281 C 192.476562 57.625 192.578125 59.636719 192.578125 61.65625 Z M 192.578125 61.65625 " fill-opacity="0.81" fill-rule="nonzero"/></g><g clip-path="url(#5176454962)"><path fill="#f35b44" d="M 261.136719 61.65625 C 261.136719 63.675781 261.039062 65.691406 260.839844 67.699219 C 260.640625 69.710938 260.34375 71.707031 259.949219 73.6875 C 259.554688 75.667969 259.066406 77.625 258.480469 79.554688 C 257.894531 81.488281 257.210938 83.386719 256.4375 85.253906 C 255.664062 87.117188 254.804688 88.941406 253.851562 90.722656 C 252.898438 92.503906 251.859375 94.234375 250.738281 95.914062 C 249.613281 97.589844 248.414062 99.210938 247.128906 100.773438 C 245.847656 102.332031 244.492188 103.828125 243.0625 105.257812 C 241.636719 106.683594 240.140625 108.039062 238.578125 109.320312 C 237.015625 110.601562 235.394531 111.800781 233.714844 112.925781 C 232.03125 114.046875 230.300781 115.082031 228.519531 116.035156 C 226.738281 116.988281 224.914062 117.847656 223.046875 118.621094 C 221.179688 119.394531 219.277344 120.074219 217.34375 120.660156 C 215.410156 121.246094 213.453125 121.738281 211.46875 122.128906 C 209.488281 122.523438 207.492188 122.820312 205.480469 123.019531 C 203.46875 123.214844 201.453125 123.316406 199.433594 123.316406 C 197.414062 123.316406 195.394531 123.214844 193.386719 123.019531 C 191.375 122.820312 189.378906 122.523438 187.394531 122.128906 C 185.414062 121.738281 183.457031 121.246094 181.519531 120.660156 C 179.585938 120.074219 177.6875 119.394531 175.820312 118.621094 C 173.953125 117.847656 172.128906 116.988281 170.347656 116.035156 C 168.5625 115.082031 166.832031 114.046875 165.152344 112.925781 C 163.472656 111.800781 161.851562 110.601562 160.289062 109.320312 C 158.726562 108.039062 157.230469 106.683594 155.800781 105.257812 C 154.375 103.828125 153.019531 102.332031 151.734375 100.773438 C 150.453125 99.210938 149.25 97.589844 148.128906 95.914062 C 147.003906 94.234375 145.96875 92.503906 145.015625 90.722656 C 144.0625 88.941406 143.199219 87.117188 142.425781 85.253906 C 141.652344 83.386719 140.972656 81.488281 140.386719 79.554688 C 139.800781 77.625 139.308594 75.667969 138.914062 73.6875 C 138.519531 71.707031 138.226562 69.710938 138.027344 67.699219 C 137.828125 65.691406 137.730469 63.675781 137.730469 61.65625 C 137.730469 59.636719 137.828125 57.625 138.027344 55.613281 C 138.226562 53.605469 138.519531 51.609375 138.914062 49.628906 C 139.308594 47.648438 139.800781 45.691406 140.386719 43.757812 C 140.972656 41.828125 141.652344 39.929688 142.425781 38.0625 C 143.199219 36.195312 144.0625 34.375 145.015625 32.59375 C 145.96875 30.8125 147.003906 29.082031 148.128906 27.402344 C 149.25 25.722656 150.453125 24.101562 151.734375 22.542969 C 153.019531 20.980469 154.375 19.488281 155.800781 18.058594 C 157.230469 16.632812 158.726562 15.277344 160.289062 13.996094 C 161.851562 12.714844 163.472656 11.511719 165.152344 10.390625 C 166.832031 9.269531 168.5625 8.230469 170.347656 7.28125 C 172.128906 6.328125 173.953125 5.464844 175.820312 4.695312 C 177.6875 3.921875 179.585938 3.242188 181.519531 2.65625 C 183.457031 2.070312 185.414062 1.578125 187.394531 1.183594 C 189.378906 0.789062 191.375 0.496094 193.386719 0.296875 C 195.394531 0.0976562 197.414062 0 199.433594 0 C 201.453125 0 203.46875 0.0976562 205.480469 0.296875 C 207.492188 0.496094 209.488281 0.789062 211.46875 1.183594 C 213.453125 1.578125 215.410156 2.070312 217.34375 2.65625 C 219.277344 3.242188 221.179688 3.921875 223.046875 4.695312 C 224.914062 5.464844 226.738281 6.328125 228.519531 7.28125 C 230.300781 8.230469 232.03125 9.269531 233.714844 10.390625 C 235.394531 11.511719 237.015625 12.714844 238.578125 13.996094 C 240.140625 15.277344 241.636719 16.632812 243.0625 18.058594 C 244.492188 19.488281 245.847656 20.980469 247.128906 22.542969 C 248.414062 24.101562 249.613281 25.722656 250.738281 27.402344 C 251.859375 29.082031 252.898438 30.8125 253.851562 32.59375 C 254.804688 34.375 255.664062 36.195312 256.4375 38.0625 C 257.210938 39.929688 257.894531 41.828125 258.480469 43.757812 C 259.066406 45.691406 259.554688 47.648438 259.949219 49.628906 C 260.34375 51.609375 260.640625 53.605469 260.839844 55.613281 C 261.039062 57.625 261.136719 59.636719 261.136719 61.65625 Z M 261.136719 61.65625 " fill-opacity="0.81" fill-rule="nonzero"/></g><g clip-path="url(#70bd59ff80)"><path fill="#222d38" d="M 327.855469 87.058594 C 332.675781 87.058594 337.058594 85.78125 341.003906 83.234375 C 344.945312 80.683594 348.019531 77.265625 350.230469 72.980469 L 341.644531 68.445312 C 340.335938 71.242188 338.488281 73.476562 336.101562 75.144531 C 333.710938 76.8125 330.894531 77.648438 327.652344 77.648438 C 323.144531 77.648438 319.382812 76.101562 316.363281 73.011719 C 313.34375 69.921875 311.832031 66.144531 311.832031 61.675781 C 311.832031 57.117188 313.355469 53.292969 316.398438 50.203125 C 319.4375 47.113281 323.257812 45.566406 327.855469 45.566406 C 333.804688 45.566406 338.265625 48.320312 341.238281 53.824219 L 349.484375 48.542969 C 347.277344 44.800781 344.257812 41.820312 340.425781 39.609375 C 336.597656 37.398438 332.40625 36.292969 327.855469 36.292969 C 320.6875 36.292969 314.671875 38.695312 309.804688 43.503906 C 304.9375 48.308594 302.503906 54.367188 302.503906 61.675781 C 302.503906 68.851562 304.859375 74.875 309.570312 79.746094 C 314.277344 84.621094 320.375 87.058594 327.855469 87.058594 Z M 369.695312 87.058594 C 374.5625 87.058594 378.699219 85.34375 382.101562 81.914062 C 385.503906 78.484375 387.203125 74.332031 387.203125 69.460938 C 387.203125 64.585938 385.503906 60.433594 382.101562 57.003906 C 378.699219 53.574219 374.5625 51.859375 369.695312 51.859375 C 364.832031 51.859375 360.695312 53.574219 357.292969 57.003906 C 353.890625 60.433594 352.1875 64.585938 352.1875 69.460938 C 352.1875 74.332031 353.890625 78.484375 357.292969 81.914062 C 360.695312 85.34375 364.832031 87.058594 369.695312 87.058594 Z M 369.695312 78.257812 C 367.308594 78.257812 365.304688 77.402344 363.679688 75.6875 C 362.058594 73.972656 361.246094 71.894531 361.246094 69.460938 C 361.246094 67.023438 362.058594 64.945312 363.679688 63.230469 C 365.304688 61.515625 367.308594 60.660156 369.695312 60.660156 C 372.039062 60.660156 374.046875 61.527344 375.714844 63.265625 C 377.378906 65.003906 378.214844 67.066406 378.214844 69.460938 C 378.214844 71.851562 377.378906 73.914062 375.714844 75.652344 C 374.046875 77.390625 372.039062 78.257812 369.695312 78.257812 Z M 400.183594 86.378906 L 400.183594 67.902344 C 400.183594 65.195312 400.734375 63.164062 401.839844 61.8125 C 402.945312 60.457031 404.417969 59.78125 406.265625 59.78125 C 410.1875 59.78125 412.148438 62.171875 412.148438 66.953125 L 412.148438 86.378906 L 421.542969 86.378906 L 421.542969 67.902344 C 421.542969 65.195312 422.097656 63.164062 423.199219 61.8125 C 424.304688 60.457031 425.78125 59.78125 427.628906 59.78125 C 431.546875 59.78125 433.507812 62.171875 433.507812 66.953125 L 433.507812 86.378906 L 442.90625 86.378906 L 442.90625 65.738281 C 442.90625 61.316406 441.824219 57.894531 439.660156 55.480469 C 437.496094 53.066406 434.296875 51.859375 430.0625 51.859375 C 425.554688 51.859375 422.039062 53.644531 419.515625 57.207031 C 417.445312 53.644531 413.972656 51.859375 409.105469 51.859375 C 405.367188 51.859375 402.371094 53.28125 400.117188 56.125 L 400.117188 52.539062 L 390.921875 52.539062 L 390.921875 86.378906 Z M 456.898438 101.949219 L 456.898438 83.0625 C 459.195312 85.726562 462.621094 87.058594 467.171875 87.058594 C 471.226562 87.058594 474.945312 85.5 478.324219 82.386719 C 481.707031 79.273438 483.394531 74.964844 483.394531 69.460938 C 483.394531 66.570312 482.910156 63.976562 481.941406 61.675781 C 480.972656 59.375 479.6875 57.523438 478.089844 56.125 C 476.488281 54.726562 474.742188 53.667969 472.851562 52.945312 C 470.957031 52.222656 469.019531 51.859375 467.039062 51.859375 C 462.757812 51.859375 459.375 53.371094 456.898438 56.394531 L 456.898438 52.539062 L 447.636719 52.539062 L 447.636719 101.949219 Z M 465.28125 78.527344 C 462.800781 78.527344 460.738281 77.636719 459.09375 75.855469 C 457.449219 74.074219 456.628906 71.917969 456.628906 69.390625 C 456.628906 66.863281 457.449219 64.722656 459.09375 62.960938 C 460.738281 61.203125 462.800781 60.320312 465.28125 60.320312 C 467.847656 60.320312 470 61.179688 471.734375 62.894531 C 473.46875 64.609375 474.335938 66.773438 474.335938 69.390625 C 474.335938 72.007812 473.46875 74.1875 471.734375 75.921875 C 470 77.660156 467.847656 78.527344 465.28125 78.527344 Z M 502.121094 87.058594 C 506.402344 87.058594 509.804688 85.566406 512.328125 82.589844 L 512.328125 86.378906 L 521.589844 86.378906 L 521.589844 52.539062 L 512.328125 52.539062 L 512.328125 55.855469 C 509.804688 53.191406 506.445312 51.859375 502.253906 51.859375 C 499.550781 51.859375 496.992188 52.46875 494.582031 53.6875 C 492.171875 54.90625 490.109375 56.890625 488.398438 59.644531 C 486.683594 62.398438 485.828125 65.667969 485.828125 69.460938 C 485.828125 74.964844 487.53125 79.273438 490.933594 82.386719 C 494.335938 85.5 498.0625 87.058594 502.121094 87.058594 Z M 503.945312 78.527344 C 501.375 78.527344 499.226562 77.660156 497.488281 75.921875 C 495.753906 74.1875 494.886719 72.007812 494.886719 69.390625 C 494.886719 66.773438 495.753906 64.609375 497.488281 62.894531 C 499.226562 61.179688 501.375 60.320312 503.945312 60.320312 C 506.425781 60.320312 508.484375 61.203125 510.128906 62.960938 C 511.773438 64.722656 512.597656 66.863281 512.597656 69.390625 C 512.597656 71.917969 511.773438 74.074219 510.128906 75.855469 C 508.484375 77.636719 506.425781 78.527344 503.945312 78.527344 Z M 535.582031 86.378906 L 535.582031 67.902344 C 535.582031 65.195312 536.179688 63.164062 537.371094 61.8125 C 538.566406 60.457031 540.109375 59.78125 542.003906 59.78125 C 544.03125 59.78125 545.574219 60.402344 546.632812 61.640625 C 547.691406 62.882812 548.222656 64.652344 548.222656 66.953125 L 548.222656 86.378906 L 557.617188 86.378906 L 557.617188 65.738281 C 557.617188 61.359375 556.492188 57.953125 554.238281 55.515625 C 551.984375 53.078125 548.851562 51.859375 544.839844 51.859375 C 540.964844 51.859375 537.855469 53.351562 535.511719 56.328125 L 535.511719 52.539062 L 526.320312 52.539062 L 526.320312 86.378906 Z M 576.613281 102.015625 L 596.214844 52.539062 L 586.617188 52.539062 L 578.84375 73.386719 L 570.527344 52.539062 L 560.792969 52.539062 L 574.246094 84.890625 L 567.351562 102.015625 Z M 576.613281 102.015625 " fill-opacity="1" fill-rule="evenodd"/></g></svg>